# xmcd
#
# Track frame offsets:
#	150
#	15789
#	36847
#	57744
#	77938
#	95799
#	113172
#	129555
#	150125
#	174053
#	203915
#	222640
#
# Disc length: 3207 seconds
#
# Revision: 0
# Processed by: cddbd v1.5.1PL2 Copyright (c) Steve Scherf et al.
# Submitted via: dBpowerAMP V4.0
#
DISCID=9b0c850c
DTITLE=Anthony Hamilton - Southern Stuff
DYEAR=1900
DGENRE=R&B
TTITLE0=Where Did It Go Wrong?
TTITLE1=Southern Stuff
TTITLE2=Can't Let Go
TTITLE3=Ain't Nobody Worryin'
TTITLE4=The Truth
TTITLE5=Preacher's Daughter
TTITLE6=Pass Me Over
TTITLE7=Everybody
TTITLE8=Sista Big Bones
TTITLE9=Change Your World
TTITLE10=Never Love Again
TTITLE11=Never Love Again
EXTD=
EXTT0=
EXTT1=
EXTT2=
EXTT3=
EXTT4=
EXTT5=
EXTT6=
EXTT7=
EXTT8=
EXTT9=
EXTT10=
EXTT11=
PLAYORDER=
